<?xml version="1.0" standalone="no"?>
<!DOCTYPE svg PUBLIC "-//W3C//DTD SVG 20010904//EN"
 "http://www.w3.org/TR/2001/REC-SVG-20010904/DTD/svg10.dtd">
<svg version="1.0" xmlns="http://www.w3.org/2000/svg"
 width="315.000000pt" height="315.000000pt" viewBox="0 0 315.000000 315.000000"
 preserveAspectRatio="xMidYMid meet">
<metadata>
Created by potrace 1.14, written by Peter Selinger 2001-2017
</metadata>
<g transform="translate(0.000000,315.000000) scale(0.100000,-0.100000)"
fill="#000000" stroke="none">
<path d="M839 2956 c-2 -2 -22 -7 -44 -10 -83 -13 -97 -17 -158 -40 -146 -55
-250 -121 -355 -226 -173 -172 -272 -396 -278 -631 -3 -145 25 -270 106 -474
80 -200 232 -508 378 -762 23 -39 50 -87 61 -105 114 -200 271 -449 300 -477
42 -40 128 -49 182 -21 19 11 89 92 89 104 0 4 14 27 30 51 17 24 30 46 30 49
0 3 14 25 31 50 l30 46 955 0 954 0 0 664 0 663 -117 58 c-467 229 -481 235
-505 226 -12 -5 -58 -25 -101 -45 -43 -20 -80 -36 -82 -36 -2 0 -45 -20 -97
-44 -197 -92 -349 -156 -358 -151 -4 3 -4 21 2 41 37 135 -5 383 -95 561 -90
176 -272 349 -453 429 -123 54 -221 76 -365 80 -75 2 -138 2 -140 0z"/>
</g>
</svg>
