<svg width="393" height="577" viewBox="0 0 393 577" fill="none" xmlns="http://www.w3.org/2000/svg">
<circle cx="196.5" cy="196.5" r="196.5" fill="#4545A5"/>
<path d="M281.168 245.67C285.844 245.67 289.635 241.879 289.635 237.203V220.27C289.635 206.264 278.24 194.869 264.234 194.869H258.739L267.072 167.582C267.115 167.443 267.154 167.303 267.189 167.162C271.196 151.133 259.083 135.602 242.546 135.602H230.367C225.699 135.602 221.9 131.803 221.9 127.135V121.467C231.971 109.179 238.834 90.4205 238.834 76.334C238.834 52.991 219.843 34 196.5 34C173.157 34 154.166 52.991 154.166 76.334C154.166 90.4199 161.029 109.178 171.1 121.467V127.135C171.1 131.803 167.301 135.602 162.633 135.602H150.454C133.93 135.602 121.801 151.121 125.812 167.162C125.847 167.304 125.886 167.443 125.928 167.582L134.261 194.869H128.766C114.76 194.869 103.365 206.264 103.365 220.27V237.203C103.365 241.879 107.156 245.67 111.832 245.67H120.299V306.066H111.832C107.156 306.066 103.365 309.857 103.365 314.533C103.365 319.209 107.156 323 111.832 323H128.766H264.234H281.168C285.844 323 289.635 319.209 289.635 314.533C289.635 309.857 285.844 306.066 281.168 306.066H272.701V245.67H281.168ZM196.5 50.9336C210.506 50.9336 221.9 62.3282 221.9 76.334C221.9 84.3052 218.388 95.5993 213.16 104.438C207.89 113.349 201.662 118.668 196.5 118.668C191.338 118.668 185.11 113.349 179.84 104.438C174.612 95.5993 171.1 84.3052 171.1 76.334C171.1 62.3282 182.494 50.9336 196.5 50.9336ZM150.454 152.535H162.633C174.326 152.535 184.193 144.59 187.135 133.817C190.194 134.994 193.33 135.602 196.5 135.602C199.67 135.602 202.806 134.994 205.865 133.817C208.807 144.59 218.674 152.535 230.367 152.535H242.546C247.993 152.535 252.008 157.593 250.803 162.879L241.034 194.869H151.966L142.198 162.879C140.992 157.59 145.009 152.535 150.454 152.535ZM255.768 306.066H137.232V245.67H255.768V306.066ZM264.234 228.736H128.766H120.299V220.27C120.299 215.601 124.097 211.803 128.766 211.803H145.699H247.301H264.234C268.903 211.803 272.701 215.601 272.701 220.27V228.736H264.234Z" fill="black"/>
<path d="M213.434 272.199H179.566C174.89 272.199 171.1 275.99 171.1 280.666C171.1 285.342 174.89 289.133 179.566 289.133H213.434C218.11 289.133 221.9 285.342 221.9 280.666C221.9 275.99 218.11 272.199 213.434 272.199Z" fill="black"/>
<circle cx="196.5" cy="196.5" r="196.5" fill="#4545A5"/>
<path d="M281.168 245.67C285.844 245.67 289.635 241.879 289.635 237.203V220.27C289.635 206.264 278.24 194.869 264.234 194.869H258.739L267.072 167.582C267.115 167.443 267.154 167.303 267.189 167.162C271.196 151.133 259.083 135.602 242.546 135.602H230.367C225.699 135.602 221.9 131.803 221.9 127.135V121.467C231.971 109.179 238.834 90.4205 238.834 76.334C238.834 52.991 219.843 34 196.5 34C173.157 34 154.166 52.991 154.166 76.334C154.166 90.4199 161.029 109.178 171.1 121.467V127.135C171.1 131.803 167.301 135.602 162.633 135.602H150.454C133.93 135.602 121.801 151.121 125.812 167.162C125.847 167.304 125.886 167.443 125.928 167.582L134.261 194.869H128.766C114.76 194.869 103.365 206.264 103.365 220.27V237.203C103.365 241.879 107.156 245.67 111.832 245.67H120.299V306.066H111.832C107.156 306.066 103.365 309.857 103.365 314.533C103.365 319.209 107.156 323 111.832 323H128.766H264.234H281.168C285.844 323 289.635 319.209 289.635 314.533C289.635 309.857 285.844 306.066 281.168 306.066H272.701V245.67H281.168ZM196.5 50.9336C210.506 50.9336 221.9 62.3282 221.9 76.334C221.9 84.3052 218.388 95.5993 213.16 104.438C207.89 113.349 201.662 118.668 196.5 118.668C191.338 118.668 185.11 113.349 179.84 104.438C174.612 95.5993 171.1 84.3052 171.1 76.334C171.1 62.3282 182.494 50.9336 196.5 50.9336ZM150.454 152.535H162.633C174.326 152.535 184.193 144.59 187.135 133.817C190.194 134.994 193.33 135.602 196.5 135.602C199.67 135.602 202.806 134.994 205.865 133.817C208.807 144.59 218.674 152.535 230.367 152.535H242.546C247.993 152.535 252.008 157.593 250.803 162.879L241.034 194.869H151.966L142.198 162.879C140.992 157.59 145.009 152.535 150.454 152.535ZM255.768 306.066H137.232V245.67H255.768V306.066ZM264.234 228.736H128.766H120.299V220.27C120.299 215.601 124.097 211.803 128.766 211.803H145.699H247.301H264.234C268.903 211.803 272.701 215.601 272.701 220.27V228.736H264.234Z" fill="white"/>
<path d="M213.434 272.199H179.566C174.89 272.199 171.1 275.99 171.1 280.666C171.1 285.342 174.89 289.133 179.566 289.133H213.434C218.11 289.133 221.9 285.342 221.9 280.666C221.9 275.99 218.11 272.199 213.434 272.199Z" fill="white"/>
<rect x="187" y="347" width="20" height="230" fill="#4545A5"/>
</svg>
