<svg width="405" height="277" viewBox="0 0 405 277" fill="none" xmlns="http://www.w3.org/2000/svg">
<path d="M41.5 42.625H112.5H154C154 42.625 167.5 94 181 106C194.5 118 249 141.5 302 114C355 86.5 395 96 403 114C411 132 381 137 382 172C383 207 399.875 210.337 388 235C362 289 71.5714 247 71.5714 247L41.5 139V42.625Z" fill="#7B61FF"/>
<circle cx="95" cy="99" r="59" fill="white"/>
<path d="M95.2368 0C42.6317 0 0 42.6435 0 95.2486C0 135.348 55.3569 227.75 81.66 269.395C84.6076 274.051 89.7405 276.87 95.2464 276.87C100.755 276.859 105.877 274.042 108.815 269.386C135.127 227.732 190.475 135.348 190.475 95.248C190.475 42.6435 147.843 0 95.2368 0ZM95.2368 153.398C65.4868 153.398 41.3689 129.283 41.3689 99.5292C41.3689 69.7786 65.4862 45.6613 95.2368 45.6613C124.987 45.6613 149.105 69.7781 149.105 99.5292C149.105 129.283 124.988 153.398 95.2368 153.398Z" fill="#7B61FF"/>
<path d="M138.728 185.36C145.576 194.896 153.48 204.88 162.44 215.312L162.248 216.752C158.664 217.648 154.44 218.384 149.576 218.96L148.04 218.192C139.656 207.056 132.2 196.368 125.672 186.128L125.48 198.416L125.96 218H113L113.672 199.568L113 156.176H126.152L125.672 184.88L143.048 162.128L146.6 156.176H160.616L138.728 185.36ZM196.999 218H181.447L162.535 156.176H175.783L177.319 164.336L189.031 205.904H189.895L203.335 165.008L204.967 156.176H217.831L196.999 218ZM263.911 207.248L264.679 208.304L263.815 218H225.031L225.703 199.568L225.031 156.176H264.199L264.967 157.232L264.007 166.928L249.223 166.448L238.087 166.544L237.799 181.424L248.455 181.616L258.535 181.328L259.303 182.288L258.439 191.984L247.495 191.696L237.607 191.792L237.511 198.416L237.799 207.728L248.647 207.824L263.911 207.248ZM293.747 155.408C298.995 155.408 304.211 156.464 309.395 158.576L307.283 169.808L305.363 170.576C303.187 169.04 300.915 167.824 298.547 166.928C296.243 166.032 294.131 165.584 292.211 165.584C289.651 165.584 287.603 166.288 286.067 167.696C284.531 169.04 283.763 170.608 283.763 172.4C283.763 174.256 284.595 175.824 286.259 177.104C287.987 178.384 290.675 179.888 294.323 181.616C297.843 183.216 300.691 184.72 302.867 186.128C305.107 187.472 306.995 189.264 308.531 191.504C310.131 193.744 310.931 196.496 310.931 199.76C310.931 203.28 309.971 206.512 308.051 209.456C306.131 212.336 303.411 214.64 299.891 216.368C296.371 218.032 292.307 218.864 287.699 218.864C281.619 218.864 275.507 217.552 269.363 214.928L271.187 202.832L272.627 202.064C275.187 204.304 277.971 206.032 280.979 207.248C284.051 208.4 286.771 208.976 289.139 208.976C291.955 208.976 294.131 208.304 295.667 206.96C297.267 205.552 298.067 203.888 298.067 201.968C298.067 199.92 297.203 198.256 295.475 196.976C293.811 195.696 291.091 194.16 287.315 192.368C283.859 190.832 281.043 189.392 278.867 188.048C276.691 186.704 274.835 184.912 273.299 182.672C271.763 180.432 270.995 177.712 270.995 174.512C270.995 170.928 271.955 167.696 273.875 164.816C275.795 161.872 278.483 159.568 281.939 157.904C285.395 156.24 289.331 155.408 293.747 155.408ZM359.925 157.232L359.157 166.928L347.541 166.352H343.701L343.221 198.416L343.797 218H330.741L331.413 199.568L330.933 166.352H327.093L315.285 166.928L314.421 165.872L315.285 156.176H359.157L359.925 157.232Z" fill="white"/>
<path d="M95.92 106.672L96.28 121H85.768L66.832 89.608H66.256L66.184 105.016L66.472 121H57.616L58.12 107.32L57.688 74.632H68.128L87.064 106.024H87.712L87.496 75.064L96.496 74.488L95.92 106.672ZM136.839 112.936L137.415 113.728L136.767 121H107.679L108.183 107.176L107.679 74.632H137.055L137.631 75.424L136.911 82.696L125.823 82.336L117.471 82.408L117.255 93.568L125.247 93.712L132.807 93.496L133.383 94.216L132.735 101.488L124.527 101.272L117.111 101.344L117.039 106.312L117.255 113.296L125.391 113.368L136.839 112.936Z" fill="#7B61FF"/>
</svg>
